<svg version="1.1" id="Layer_1" xmlns="http://www.w3.org/2000/svg" xmlns:xlink="http://www.w3.org/1999/xlink" x="0px" y="0px"
	 width="308.7612359841165" height="304.915625" viewBox="0 0 2000 1500" enable-background="new 0 0 2000 1500" xml:space="preserve">
<path fill="#EE3E38" opacity="1.000000" stroke="none" 
	d="
M1097.000000,1501.000000 
	C731.333435,1501.000000 366.166870,1501.000000 1.000245,1501.000000 
	C1.000163,1001.000244 1.000163,501.000519 1.000082,1.000580 
	C667.666199,1.000387 1334.332397,1.000387 2000.999023,1.000193 
	C2000.999268,500.999390 2000.999268,1000.998779 2000.999634,1500.999023 
	C1699.833374,1501.000000 1398.666626,1501.000000 1097.000000,1501.000000 
M1204.056885,1173.613403 
	C1364.609741,1094.597656 1464.020020,941.226624 1469.514404,762.475830 
	C1471.916992,684.315979 1455.981079,609.511475 1419.511353,540.274048 
	C1343.351685,395.685455 1223.818848,310.759308 1062.091431,286.283936 
	C1020.226379,279.948181 978.082642,280.938416 936.059998,286.795807 
	C887.707642,293.535522 841.511475,307.312866 797.630127,328.599792 
	C653.065125,398.728638 555.671509,534.606812 535.817993,694.047913 
	C526.537842,768.575256 534.945679,841.241699 560.623962,911.818970 
	C626.556274,1093.035156 797.220581,1215.173584 991.069641,1219.608398 
	C1065.393311,1221.308838 1136.220337,1205.939697 1204.056885,1173.613403 
z"/>
<path fill="#FFFFFF" opacity="1.000000" stroke="none" 
	d="
M1203.718750,1173.773438 
	C1136.220337,1205.939697 1065.393311,1221.308838 991.069641,1219.608398 
	C797.220581,1215.173584 626.556274,1093.035156 560.623962,911.818970 
	C534.945679,841.241699 526.537842,768.575256 535.817993,694.047913 
	C555.671509,534.606812 653.065125,398.728638 797.630127,328.599792 
	C841.511475,307.312866 887.707642,293.535522 936.059998,286.795807 
	C978.082642,280.938416 1020.226379,279.948181 1062.091431,286.283936 
	C1223.818848,310.759308 1343.351685,395.685455 1419.511353,540.274048 
	C1455.981079,609.511475 1471.916992,684.315979 1469.514404,762.475830 
	C1464.020020,941.226624 1364.609741,1094.597656 1203.718750,1173.773438 
M948.491516,613.946167 
	C944.282715,632.267151 940.469482,650.690308 935.770691,668.884705 
	C929.026245,695.000061 921.320984,720.841431 908.008728,744.569031 
	C900.819824,757.382385 892.044250,768.784058 878.614563,775.725708 
	C855.741516,787.548401 832.257874,779.943054 820.961060,756.865295 
	C818.788086,752.426086 817.045349,747.630920 816.007080,742.805725 
	C810.225342,715.935242 813.310791,689.400818 820.337891,663.269592 
	C838.088989,597.259766 890.158142,552.405823 967.693420,558.974792 
	C982.059875,560.191956 996.307434,563.179016 1010.508362,565.882568 
	C1025.765625,568.787354 1037.639038,561.557556 1041.243042,546.472717 
	C1043.829712,535.645996 1040.133545,529.050354 1029.525391,525.994873 
	C993.711609,515.679321 957.330566,513.946899 920.693604,520.033936 
	C865.434021,529.215027 822.123718,557.304688 792.166565,604.699524 
	C768.719482,641.795044 759.368774,682.987061 760.489746,726.642639 
	C760.912476,743.102173 764.125977,759.017822 771.175964,774.040405 
	C795.959839,826.851685 854.320435,832.162964 887.194519,813.031067 
	C903.449158,803.571106 914.559875,789.483093 923.288208,773.214905 
	C924.069275,771.759033 924.945618,770.354309 926.336609,767.966370 
	C929.913574,787.843994 937.109253,804.190979 953.736877,814.528809 
	C970.298950,824.826050 988.510071,824.236084 1007.394653,820.845520 
	C1006.601440,822.858826 1006.081848,824.236755 1005.519104,825.596741 
	C996.020020,848.553650 988.053955,872.001892 983.518066,896.481934 
	C979.982849,915.561951 977.903625,934.751404 982.033508,954.035706 
	C985.803833,971.640930 995.527832,982.377441 1010.146118,984.711304 
	C1023.580322,986.856201 1035.593140,983.630005 1045.610474,974.051147 
	C1054.866943,965.199707 1060.626343,954.174683 1065.012329,942.382935 
	C1075.935425,913.015320 1081.522583,882.449402 1084.981323,851.436035 
	C1086.027100,842.057861 1086.808838,832.650269 1087.725220,823.113953 
	C1102.381836,822.480469 1115.550171,818.318787 1127.827393,811.058044 
	C1128.913574,810.415649 1131.563965,811.029968 1132.646240,811.999756 
	C1138.501953,817.246887 1145.031494,821.026306 1152.861206,822.177490 
	C1170.843018,824.820984 1187.236572,820.546814 1202.138428,810.371277 
	C1214.763184,801.750671 1225.617310,791.171692 1235.034302,779.192627 
	C1242.013062,770.315125 1243.126831,759.917114 1240.504395,749.305603 
	C1238.286743,740.332764 1229.974976,738.372498 1223.257935,744.890747 
	C1220.515869,747.551697 1218.248779,750.696106 1215.576782,753.436401 
	C1208.719238,760.469116 1202.085693,767.770264 1194.754517,774.279236 
	C1184.714111,783.193726 1172.985962,785.704834 1159.505737,781.268311 
	C1160.437744,779.714294 1161.272827,778.537170 1161.891724,777.255676 
	C1166.797363,767.099121 1172.724854,757.282349 1176.312988,746.675964 
	C1183.339600,725.905945 1185.001587,704.565735 1177.155518,683.490845 
	C1168.730957,660.862000 1150.060547,649.978455 1127.336304,654.014465 
	C1115.713135,656.078796 1106.490479,662.467468 1098.397827,670.711792 
	C1095.791382,673.367065 1093.298340,676.133545 1090.361694,679.267151 
	C1089.878906,672.778931 1089.723389,666.987976 1088.946533,661.281616 
	C1088.156128,655.474121 1085.154297,652.345886 1079.417236,652.183105 
	C1073.669678,652.019897 1067.661255,652.211914 1062.168213,653.714722 
	C1049.764160,657.108093 1044.963501,664.433167 1045.152100,677.269653 
	C1045.463257,698.431702 1045.459229,719.601196 1046.058960,740.754211 
	C1046.229858,746.779663 1044.251343,751.670227 1040.531982,755.690430 
	C1035.118896,761.541504 1029.413086,767.273499 1023.088562,772.077271 
	C1018.712646,775.400818 1013.303833,777.906860 1007.970215,779.322266 
	C993.654846,783.121094 982.979431,776.832642 979.911926,762.332886 
	C978.176453,754.129700 977.648315,745.457336 978.018799,737.059937 
	C979.492554,703.658813 986.730591,671.106995 993.648499,638.541687 
	C996.550781,624.879272 1000.393372,611.408936 1003.045898,597.703674 
	C1004.816528,588.555298 1000.590149,581.925659 991.516418,580.304810 
	C983.801086,578.926575 975.642334,578.919128 967.803040,579.641968 
	C959.017639,580.452087 954.092590,586.534546 952.274719,595.004333 
	C950.982788,601.023682 949.900879,607.088135 948.491516,613.946167 
z"/>
<path fill="#EE3F39" opacity="1.000000" stroke="none" 
	d="
M948.608398,613.539307 
	C949.900879,607.088135 950.982788,601.023682 952.274719,595.004333 
	C954.092590,586.534546 959.017639,580.452087 967.803040,579.641968 
	C975.642334,578.919128 983.801086,578.926575 991.516418,580.304810 
	C1000.590149,581.925659 1004.816528,588.555298 1003.045898,597.703674 
	C1000.393372,611.408936 996.550781,624.879272 993.648499,638.541687 
	C986.730591,671.106995 979.492554,703.658813 978.018799,737.059937 
	C977.648315,745.457336 978.176453,754.129700 979.911926,762.332886 
	C982.979431,776.832642 993.654846,783.121094 1007.970215,779.322266 
	C1013.303833,777.906860 1018.712646,775.400818 1023.088562,772.077271 
	C1029.413086,767.273499 1035.118896,761.541504 1040.531982,755.690430 
	C1044.251343,751.670227 1046.229858,746.779663 1046.058960,740.754211 
	C1045.459229,719.601196 1045.463257,698.431702 1045.152100,677.269653 
	C1044.963501,664.433167 1049.764160,657.108093 1062.168213,653.714722 
	C1067.661255,652.211914 1073.669678,652.019897 1079.417236,652.183105 
	C1085.154297,652.345886 1088.156128,655.474121 1088.946533,661.281616 
	C1089.723389,666.987976 1089.878906,672.778931 1090.361694,679.267151 
	C1093.298340,676.133545 1095.791382,673.367065 1098.397827,670.711792 
	C1106.490479,662.467468 1115.713135,656.078796 1127.336304,654.014465 
	C1150.060547,649.978455 1168.730957,660.862000 1177.155518,683.490845 
	C1185.001587,704.565735 1183.339600,725.905945 1176.312988,746.675964 
	C1172.724854,757.282349 1166.797363,767.099121 1161.891724,777.255676 
	C1161.272827,778.537170 1160.437744,779.714294 1159.505737,781.268311 
	C1172.985962,785.704834 1184.714111,783.193726 1194.754517,774.279236 
	C1202.085693,767.770264 1208.719238,760.469116 1215.576782,753.436401 
	C1218.248779,750.696106 1220.515869,747.551697 1223.257935,744.890747 
	C1229.974976,738.372498 1238.286743,740.332764 1240.504395,749.305603 
	C1243.126831,759.917114 1242.013062,770.315125 1235.034302,779.192627 
	C1225.617310,791.171692 1214.763184,801.750671 1202.138428,810.371277 
	C1187.236572,820.546814 1170.843018,824.820984 1152.861206,822.177490 
	C1145.031494,821.026306 1138.501953,817.246887 1132.646240,811.999756 
	C1131.563965,811.029968 1128.913574,810.415649 1127.827393,811.058044 
	C1115.550171,818.318787 1102.381836,822.480469 1087.725220,823.113953 
	C1086.808838,832.650269 1086.027100,842.057861 1084.981323,851.436035 
	C1081.522583,882.449402 1075.935425,913.015320 1065.012329,942.382935 
	C1060.626343,954.174683 1054.866943,965.199707 1045.610474,974.051147 
	C1035.593140,983.630005 1023.580322,986.856201 1010.146118,984.711304 
	C995.527832,982.377441 985.803833,971.640930 982.033508,954.035706 
	C977.903625,934.751404 979.982849,915.561951 983.518066,896.481934 
	C988.053955,872.001892 996.020020,848.553650 1005.519104,825.596741 
	C1006.081848,824.236755 1006.601440,822.858826 1007.394653,820.845520 
	C988.510071,824.236084 970.298950,824.826050 953.736877,814.528809 
	C937.109253,804.190979 929.913574,787.843994 926.336609,767.966370 
	C924.945618,770.354309 924.069275,771.759033 923.288208,773.214905 
	C914.559875,789.483093 903.449158,803.571106 887.194519,813.031067 
	C854.320435,832.162964 795.959839,826.851685 771.175964,774.040405 
	C764.125977,759.017822 760.912476,743.102173 760.489746,726.642639 
	C759.368774,682.987061 768.719482,641.795044 792.166565,604.699524 
	C822.123718,557.304688 865.434021,529.215027 920.693604,520.033936 
	C957.330566,513.946899 993.711609,515.679321 1029.525391,525.994873 
	C1040.133545,529.050354 1043.829712,535.645996 1041.243042,546.472717 
	C1037.639038,561.557556 1025.765625,568.787354 1010.508362,565.882568 
	C996.307434,563.179016 982.059875,560.191956 967.693420,558.974792 
	C890.158142,552.405823 838.088989,597.259766 820.337891,663.269592 
	C813.310791,689.400818 810.225342,715.935242 816.007080,742.805725 
	C817.045349,747.630920 818.788086,752.426086 820.961060,756.865295 
	C832.257874,779.943054 855.741516,787.548401 878.614563,775.725708 
	C892.044250,768.784058 900.819824,757.382385 908.008728,744.569031 
	C921.320984,720.841431 929.026245,695.000061 935.770691,668.884705 
	C940.469482,650.690308 944.282715,632.267151 948.608398,613.539307 
M1089.833008,754.499939 
	C1089.833008,765.588745 1089.833008,776.677551 1089.833008,788.203186 
	C1098.118164,786.564697 1104.864868,782.444946 1110.572144,776.809631 
	C1130.257935,757.371704 1138.099854,733.358459 1136.786621,706.148560 
	C1136.462891,699.438171 1133.786377,693.344788 1126.970337,690.519775 
	C1120.366089,687.782654 1114.226074,689.870911 1109.494629,694.479614 
	C1103.335571,700.478821 1097.768433,707.116394 1092.289551,713.761963 
	C1090.871094,715.482483 1090.161621,718.244263 1090.103882,720.552185 
	C1089.829590,731.530151 1089.892822,742.516479 1089.833008,754.499939 
M1021.744751,868.192139 
	C1018.591309,883.635986 1014.633301,898.974487 1012.592896,914.563965 
	C1011.412659,923.581848 1013.009033,933.038025 1014.002136,942.227112 
	C1014.378662,945.711182 1016.369324,950.257019 1020.568359,949.700806 
	C1023.269287,949.343018 1026.567139,946.064880 1027.765625,943.301208 
	C1030.451904,937.106323 1032.532471,930.527588 1033.911011,923.907593 
	C1040.201660,893.699097 1042.408813,863.005920 1043.943359,832.267761 
	C1044.386963,823.380493 1044.011353,814.452332 1044.011353,805.841492 
	C1035.518799,825.586731 1027.921753,846.200073 1021.744751,868.192139 
z"/>
<path fill="#FFFEFE" opacity="1.000000" stroke="none" 
	d="
M1089.834473,753.999878 
	C1089.892822,742.516479 1089.829590,731.530151 1090.103882,720.552185 
	C1090.161621,718.244263 1090.871094,715.482483 1092.289551,713.761963 
	C1097.768433,707.116394 1103.335571,700.478821 1109.494629,694.479614 
	C1114.226074,689.870911 1120.366089,687.782654 1126.970337,690.519775 
	C1133.786377,693.344788 1136.462891,699.438171 1136.786621,706.148560 
	C1138.099854,733.358459 1130.257935,757.371704 1110.572144,776.809631 
	C1104.864868,782.444946 1098.118164,786.564697 1089.833008,788.203186 
	C1089.833008,776.677551 1089.833008,765.588745 1089.834473,753.999878 
z"/>
<path fill="#FFFCFC" opacity="1.000000" stroke="none" 
	d="
M1021.841736,867.799072 
	C1027.921753,846.200073 1035.518799,825.586731 1044.011353,805.841492 
	C1044.011353,814.452332 1044.386963,823.380493 1043.943359,832.267761 
	C1042.408813,863.005920 1040.201660,893.699097 1033.911011,923.907593 
	C1032.532471,930.527588 1030.451904,937.106323 1027.765625,943.301208 
	C1026.567139,946.064880 1023.269287,949.343018 1020.568359,949.700806 
	C1016.369324,950.257019 1014.378662,945.711182 1014.002136,942.227112 
	C1013.009033,933.038025 1011.412659,923.581848 1012.592896,914.563965 
	C1014.633301,898.974487 1018.591309,883.635986 1021.841736,867.799072 
z"/>
</svg>